<?xml version="1.0" encoding="UTF-8"?>
<svg xmlns="http://www.w3.org/2000/svg" xmlns:xlink="http://www.w3.org/1999/xlink" width="150px" height="150px" viewBox="0 0 12 12" version="1.1">
<g id="surface1">
<path style=" stroke:none;fill-rule:nonzero;fill:rgb(0%,0%,0%);fill-opacity:1;" d="M 3.523438 7.0625 L 2.464844 8.121094 L 3.878906 9.535156 L 9.535156 3.878906 L 8.121094 2.464844 L 7.0625 3.523438 L 7.769531 4.230469 L 7.0625 4.9375 L 6.355469 4.230469 L 5.648438 4.9375 L 6.355469 5.648438 L 5.648438 6.355469 L 4.9375 5.648438 L 4.230469 6.355469 L 4.9375 7.0625 L 4.230469 7.769531 Z M 8.476562 1.402344 L 10.597656 3.523438 C 10.792969 3.71875 10.792969 4.035156 10.597656 4.230469 L 4.230469 10.597656 C 4.035156 10.792969 3.71875 10.792969 3.523438 10.597656 L 1.402344 8.476562 C 1.207031 8.28125 1.207031 7.964844 1.402344 7.769531 L 7.769531 1.402344 C 7.964844 1.207031 8.28125 1.207031 8.476562 1.402344 Z M 7.0625 9.183594 L 7.769531 8.476562 L 8.890625 9.597656 L 9.597656 9.597656 L 9.597656 8.890625 L 8.476562 7.765625 L 9.183594 7.058594 L 10.5 8.378906 L 10.5 10.5 L 8.378906 10.5 Z M 2.816406 4.9375 L 1.402344 3.523438 C 1.207031 3.328125 1.207031 3.011719 1.402344 2.816406 L 2.816406 1.402344 C 3.011719 1.207031 3.328125 1.207031 3.523438 1.402344 L 4.9375 2.816406 L 4.230469 3.523438 L 3.171875 2.464844 L 2.464844 3.171875 L 3.523438 4.230469 Z M 2.816406 4.9375 "/>
</g>
</svg>
